<svg width="445" height="475" viewBox="0 0 445 475" fill="none" xmlns="http://www.w3.org/2000/svg">
<path d="M0 32C0 14.3269 14.3269 0 32 0H445V475H32C14.3269 475 0 460.673 0 443V32Z" fill="#FFDDA9"/>
<mask id="mask0_1_56" style="mask-type:alpha" maskUnits="userSpaceOnUse" x="0" y="0" width="445" height="475">
<path d="M0 32C0 14.3269 14.3269 0 32 0H445V475H32C14.3269 475 0 460.673 0 443V32Z" fill="white"/>
</mask>
<g mask="url(#mask0_1_56)">
<path d="M135 250.5L130.5 246" stroke="#12022F" stroke-width="4" stroke-linecap="round"/>
<path d="M135 270.5L130.447 267.069" stroke="#12022F" stroke-width="4" stroke-linecap="round"/>
<path d="M135 290.5L130.498 288.004" stroke="#12022F" stroke-width="4" stroke-linecap="round"/>
<path d="M135 310.5L130.489 309.034" stroke="#12022F" stroke-width="4" stroke-linecap="round"/>
<path d="M135 330.5L130.497 330.027" stroke="#12022F" stroke-width="4" stroke-linecap="round"/>
<path d="M135 350.5L130.506 351.052" stroke="#12022F" stroke-width="4" stroke-linecap="round"/>
<path d="M135 370.5L130.515 372.044" stroke="#12022F" stroke-width="4" stroke-linecap="round"/>
<path d="M135 390.5L130.542 393.074" stroke="#12022F" stroke-width="4" stroke-linecap="round"/>
<path d="M135 410.5L130.508 414.01" stroke="#12022F" stroke-width="4" stroke-linecap="round"/>
<path d="M135 430.5L130.5 435" stroke="#12022F" stroke-width="4" stroke-linecap="round"/>
<path d="M155 250.5L151.49 246.008" stroke="#12022F" stroke-width="4" stroke-linecap="round"/>
<path d="M155 270.5L151.5 267" stroke="#12022F" stroke-width="4" stroke-linecap="round"/>
<path d="M155 290.5L151.477 288.033" stroke="#12022F" stroke-width="4" stroke-linecap="round"/>
<path d="M155 310.5L151.495 309.012" stroke="#12022F" stroke-width="4" stroke-linecap="round"/>
<path d="M155 330.5L151.499 330.008" stroke="#12022F" stroke-width="4" stroke-linecap="round"/>
<path d="M155 350.5L151.508 351.053" stroke="#12022F" stroke-width="4" stroke-linecap="round"/>
<path d="M155 370.5L151.521 372.049" stroke="#12022F" stroke-width="4" stroke-linecap="round"/>
<path d="M155 390.5L151.52 393.028" stroke="#12022F" stroke-width="4" stroke-linecap="round"/>
<path d="M155 410.5L151.5 414" stroke="#12022F" stroke-width="4" stroke-linecap="round"/>
<path d="M155 430.5L151.569 435.053" stroke="#12022F" stroke-width="4" stroke-linecap="round"/>
<path d="M175 250.5L172.426 246.042" stroke="#12022F" stroke-width="4" stroke-linecap="round"/>
<path d="M175 270.5L172.472 267.02" stroke="#12022F" stroke-width="4" stroke-linecap="round"/>
<path d="M175 290.5L172.5 288" stroke="#12022F" stroke-width="4" stroke-linecap="round"/>
<path d="M175 310.5L172.475 309.042" stroke="#12022F" stroke-width="4" stroke-linecap="round"/>
<path d="M175 330.5L172.497 330.014" stroke="#12022F" stroke-width="4" stroke-linecap="round"/>
<path d="M175 350.5L172.506 351.03" stroke="#12022F" stroke-width="4" stroke-linecap="round"/>
<path d="M175 370.5L172.501 372.002" stroke="#12022F" stroke-width="4" stroke-linecap="round"/>
<path d="M175 390.5L172.5 393" stroke="#12022F" stroke-width="4" stroke-linecap="round"/>
<path d="M175 410.5L172.533 414.023" stroke="#12022F" stroke-width="4" stroke-linecap="round"/>
<path d="M175 430.5L172.504 435.002" stroke="#12022F" stroke-width="4" stroke-linecap="round"/>
<path d="M195 250.5L193.456 246.015" stroke="#12022F" stroke-width="4" stroke-linecap="round"/>
<path d="M195 270.5L193.451 267.021" stroke="#12022F" stroke-width="4" stroke-linecap="round"/>
<path d="M195 290.5L193.498 288.001" stroke="#12022F" stroke-width="4" stroke-linecap="round"/>
<path d="M195 310.5L193.5 309" stroke="#12022F" stroke-width="4" stroke-linecap="round"/>
<path d="M195 330.5L193.496 330.011" stroke="#12022F" stroke-width="4" stroke-linecap="round"/>
<path d="M195 350.5L193.505 351.015" stroke="#12022F" stroke-width="4" stroke-linecap="round"/>
<path d="M195 370.5L193.5 372" stroke="#12022F" stroke-width="4" stroke-linecap="round"/>
<path d="M195 390.5L193.542 393.025" stroke="#12022F" stroke-width="4" stroke-linecap="round"/>
<path d="M195 410.5L193.512 414.005" stroke="#12022F" stroke-width="4" stroke-linecap="round"/>
<path d="M195 430.5L193.534 435.011" stroke="#12022F" stroke-width="4" stroke-linecap="round"/>
<path d="M215 250.5L214.448 246.006" stroke="#12022F" stroke-width="4" stroke-linecap="round"/>
<path d="M215 270.5L214.447 267.008" stroke="#12022F" stroke-width="4" stroke-linecap="round"/>
<path d="M215 290.5L214.47 288.006" stroke="#12022F" stroke-width="4" stroke-linecap="round"/>
<path d="M215 310.5L214.485 309.005" stroke="#12022F" stroke-width="4" stroke-linecap="round"/>
<path d="M215 330.5L214.5 330" stroke="#12022F" stroke-width="4" stroke-linecap="round"/>
<path d="M215 350.5L214.5 351" stroke="#12022F" stroke-width="4" stroke-linecap="round"/>
<path d="M215 370.5L214.511 372.004" stroke="#12022F" stroke-width="4" stroke-linecap="round"/>
<path d="M215 390.5L214.514 393.003" stroke="#12022F" stroke-width="4" stroke-linecap="round"/>
<path d="M215 410.5L214.508 414.001" stroke="#12022F" stroke-width="4" stroke-linecap="round"/>
<path d="M215 430.5L214.527 435.003" stroke="#12022F" stroke-width="4" stroke-linecap="round"/>
<path d="M235 250.5L235.473 245.997" stroke="#12022F" stroke-width="4" stroke-linecap="round"/>
<path d="M235 270.5L235.492 266.999" stroke="#12022F" stroke-width="4" stroke-linecap="round"/>
<path d="M235 290.5L235.486 287.997" stroke="#12022F" stroke-width="4" stroke-linecap="round"/>
<path d="M235 310.5L235.489 308.996" stroke="#12022F" stroke-width="4" stroke-linecap="round"/>
<path d="M235 330.5L235.5 330" stroke="#12022F" stroke-width="4" stroke-linecap="round"/>
<path d="M235 350.5L235.5 351" stroke="#12022F" stroke-width="4" stroke-linecap="round"/>
<path d="M235 370.5L235.515 371.995" stroke="#12022F" stroke-width="4" stroke-linecap="round"/>
<path d="M235 390.5L235.53 392.994" stroke="#12022F" stroke-width="4" stroke-linecap="round"/>
<path d="M235 410.5L235.553 413.992" stroke="#12022F" stroke-width="4" stroke-linecap="round"/>
<path d="M235 430.5L235.552 434.994" stroke="#12022F" stroke-width="4" stroke-linecap="round"/>
<path d="M255 250.5L256.466 245.989" stroke="#12022F" stroke-width="4" stroke-linecap="round"/>
<path d="M255 270.5L256.488 266.995" stroke="#12022F" stroke-width="4" stroke-linecap="round"/>
<path d="M255 290.5L256.458 287.975" stroke="#12022F" stroke-width="4" stroke-linecap="round"/>
<path d="M255 310.5L256.5 309" stroke="#12022F" stroke-width="4" stroke-linecap="round"/>
<path d="M255 330.5L256.495 329.985" stroke="#12022F" stroke-width="4" stroke-linecap="round"/>
<path d="M255 350.5L256.504 350.989" stroke="#12022F" stroke-width="4" stroke-linecap="round"/>
<path d="M255 370.5L256.5 372" stroke="#12022F" stroke-width="4" stroke-linecap="round"/>
<path d="M255 390.5L256.502 392.999" stroke="#12022F" stroke-width="4" stroke-linecap="round"/>
<path d="M255 410.5L256.549 413.979" stroke="#12022F" stroke-width="4" stroke-linecap="round"/>
<path d="M255 430.5L256.544 434.985" stroke="#12022F" stroke-width="4" stroke-linecap="round"/>
<path d="M275 250.5L277.496 245.998" stroke="#12022F" stroke-width="4" stroke-linecap="round"/>
<path d="M275 270.5L277.467 266.977" stroke="#12022F" stroke-width="4" stroke-linecap="round"/>
<path d="M275 290.5L277.5 288" stroke="#12022F" stroke-width="4" stroke-linecap="round"/>
<path d="M275 310.5L277.499 308.998" stroke="#12022F" stroke-width="4" stroke-linecap="round"/>
<path d="M275 330.5L277.494 329.97" stroke="#12022F" stroke-width="4" stroke-linecap="round"/>
<path d="M275 350.5L277.503 350.986" stroke="#12022F" stroke-width="4" stroke-linecap="round"/>
<path d="M275 370.5L277.525 371.958" stroke="#12022F" stroke-width="4" stroke-linecap="round"/>
<path d="M275 390.5L277.5 393" stroke="#12022F" stroke-width="4" stroke-linecap="round"/>
<path d="M275 410.5L277.528 413.98" stroke="#12022F" stroke-width="4" stroke-linecap="round"/>
<path d="M275 430.5L277.574 434.958" stroke="#12022F" stroke-width="4" stroke-linecap="round"/>
<path d="M295 250.5L298.431 245.947" stroke="#12022F" stroke-width="4" stroke-linecap="round"/>
<path d="M295 270.5L298.5 267" stroke="#12022F" stroke-width="4" stroke-linecap="round"/>
<path d="M295 290.5L298.48 287.972" stroke="#12022F" stroke-width="4" stroke-linecap="round"/>
<path d="M295 310.5L298.479 308.951" stroke="#12022F" stroke-width="4" stroke-linecap="round"/>
<path d="M295 330.5L298.492 329.947" stroke="#12022F" stroke-width="4" stroke-linecap="round"/>
<path d="M295 350.5L298.501 350.992" stroke="#12022F" stroke-width="4" stroke-linecap="round"/>
<path d="M295 370.5L298.505 371.988" stroke="#12022F" stroke-width="4" stroke-linecap="round"/>
<path d="M295 390.5L298.523 392.967" stroke="#12022F" stroke-width="4" stroke-linecap="round"/>
<path d="M295 410.5L298.5 414" stroke="#12022F" stroke-width="4" stroke-linecap="round"/>
<path d="M295 430.5L298.51 434.992" stroke="#12022F" stroke-width="4" stroke-linecap="round"/>
<path d="M315 250.5L319.5 246" stroke="#12022F" stroke-width="4" stroke-linecap="round"/>
<path d="M315 270.5L319.492 266.99" stroke="#12022F" stroke-width="4" stroke-linecap="round"/>
<path d="M315 290.5L319.458 287.926" stroke="#12022F" stroke-width="4" stroke-linecap="round"/>
<path d="M315 310.5L319.485 308.956" stroke="#12022F" stroke-width="4" stroke-linecap="round"/>
<path d="M315 330.5L319.494 329.948" stroke="#12022F" stroke-width="4" stroke-linecap="round"/>
<path d="M315 350.5L319.503 350.973" stroke="#12022F" stroke-width="4" stroke-linecap="round"/>
<path d="M315 370.5L319.511 371.966" stroke="#12022F" stroke-width="4" stroke-linecap="round"/>
<path d="M315 390.5L319.502 392.996" stroke="#12022F" stroke-width="4" stroke-linecap="round"/>
<path d="M315 410.5L319.553 413.931" stroke="#12022F" stroke-width="4" stroke-linecap="round"/>
<path d="M315 430.5L319.5 435" stroke="#12022F" stroke-width="4" stroke-linecap="round"/>
</g>
</svg>
